<?xml version="1.0" encoding="UTF-8"?>
<svg version="1.1" xmlns="http://www.w3.org/2000/svg" width="512" height="512">
<path d="M0 0 C0.67077576 -0.00846954 1.34155151 -0.01693909 2.03265381 -0.02566528 C4.23436826 -0.04892737 6.43537936 -0.05006004 8.63720703 -0.04882812 C10.17888666 -0.05593674 11.72056367 -0.06363676 13.26223755 -0.07189941 C16.48837645 -0.08531977 19.71427075 -0.08692432 22.94042969 -0.08105469 C27.05850337 -0.0751636 31.17539604 -0.1057355 35.2932415 -0.14617157 C38.4761885 -0.17212372 41.65885404 -0.1749192 44.84189224 -0.17127991 C46.35924368 -0.17296444 47.87660905 -0.18254246 49.39385605 -0.20042419 C64.77069921 -0.36170755 64.77069921 -0.36170755 71.02001953 5.41992188 C76.13334534 10.8023701 77.28223998 15.39112805 77.14501953 22.73242188 C77.12697266 23.98667969 77.10892578 25.2409375 77.09033203 26.53320312 C77.06712891 27.48582031 77.04392578 28.4384375 77.02001953 29.41992188 C77.69129883 29.41103943 78.36257813 29.40215698 79.05419922 29.39300537 C86.06241309 29.30427693 93.07046648 29.24408157 100.07910156 29.20019531 C102.69212326 29.18012254 105.30510028 29.15285829 107.91796875 29.11816406 C111.68126475 29.06945753 115.44396502 29.04690877 119.20751953 29.02929688 C120.36928711 29.00865173 121.53105469 28.98800659 122.72802734 28.96673584 C130.63119472 28.96456623 135.79648212 30.22013646 142.08984375 34.98803711 C142.57984863 35.47989502 143.06985352 35.97175293 143.57470703 36.47851562 C144.12642578 37.02958984 144.67814453 37.58066406 145.24658203 38.1484375 C145.79056641 38.71240234 146.33455078 39.27636719 146.89501953 39.85742188 C147.74580078 40.69756836 147.74580078 40.69756836 148.61376953 41.5546875 C153.46489483 46.48053393 155.3053461 50.31950223 155.33251953 57.35742188 C155.34927734 58.35644531 155.36603516 59.35546875 155.38330078 60.38476562 C154.66148885 66.4153879 151.52000891 70.29060861 147.45751953 74.60742188 C145.06317633 77.1668922 142.96730112 79.49899949 141.02001953 82.41992188 C141.99043089 84.99870021 143.01573917 87.29722472 144.27001953 89.73242188 C150.02001953 101.22105824 150.02001953 101.22105824 150.02001953 107.41992188 C151.29876953 107.37351562 152.57751953 107.32710938 153.89501953 107.27929688 C155.60332932 107.2417516 157.31166461 107.20535442 159.02001953 107.16992188 C159.85919922 107.13640625 160.69837891 107.10289062 161.56298828 107.06835938 C168.60168796 106.95923225 173.75441886 108.53850951 179.07861328 113.23632812 C179.53365234 113.81253906 179.98869141 114.38875 180.45751953 114.98242188 C180.93060547 115.56121094 181.40369141 116.14 181.89111328 116.73632812 C185.12798602 121.56363661 184.28301435 127.5989389 184.33251953 133.16992188 C184.36152344 134.24242187 184.39052734 135.31492187 184.42041016 136.41992188 C184.47881243 143.71571305 183.81765021 148.4176325 178.64282227 153.87133789 C172.56721987 159.39236207 166.41913044 159.70610759 158.64501953 159.54492188 C157.81357422 159.53589844 156.98212891 159.526875 156.12548828 159.51757812 C154.09020616 159.49418408 152.05507389 159.45831913 150.02001953 159.41992188 C149.67970703 161.27617187 149.67970703 161.27617187 149.33251953 163.16992188 C147.99808659 169.23727163 145.49251234 174.74586788 143.02001953 180.41992188 C142.34708607 182.08406814 141.67827093 183.7499137 141.02001953 185.41992188 C141.62330078 186 142.22658203 186.58007812 142.84814453 187.17773438 C155.09077581 199.14391914 155.09077581 199.14391914 155.33251953 209.16992188 C155.36990234 210.17539062 155.40728516 211.18085938 155.44580078 212.21679688 C154.52016717 219.18027905 150.02417092 223.92059344 145.20751953 228.66992188 C144.711875 229.18554688 144.21623047 229.70117188 143.70556641 230.23242188 C142.95436523 230.98265625 142.95436523 230.98265625 142.18798828 231.74804688 C141.52706177 232.41175293 141.52706177 232.41175293 140.8527832 233.08886719 C134.00302753 238.06353988 127.50468732 237.82168908 119.30517578 237.71289062 C118.09429794 237.70864578 116.8834201 237.70440094 115.635849 237.70002747 C111.78450896 237.68329177 107.9337003 237.64564759 104.08251953 237.60742188 C101.46468857 237.5923685 98.84684937 237.57868124 96.22900391 237.56640625 C89.82582911 237.53340486 83.4229623 237.48325573 77.02001953 237.41992188 C77.04829834 238.85646118 77.04829834 238.85646118 77.07714844 240.32202148 C77.09181152 241.58022705 77.10647461 242.83843262 77.12158203 244.13476562 C77.14986084 246.00442993 77.14986084 246.00442993 77.17871094 247.91186523 C76.93176383 253.37091592 75.29913438 256.99094742 71.59423828 260.93945312 C66.47543815 265.52917831 61.95226646 266.6686331 55.21362305 266.69458008 C54.21748993 266.70224648 54.21748993 266.70224648 53.20123291 266.71006775 C51.01703756 266.72391023 48.83315964 266.72301112 46.64892578 266.72070312 C45.12344751 266.72459292 43.59797031 266.72892818 42.07249451 266.73368835 C38.87910446 266.741139 35.685825 266.74086765 32.49243164 266.7355957 C28.40917671 266.72980169 24.32637548 266.74673568 20.24319553 266.76994038 C17.09381992 266.78470363 13.94455294 266.78554593 10.79514885 266.78243065 C9.29012084 266.78294253 7.78508653 266.78815524 6.28009224 266.79824257 C4.17170214 266.81064094 2.06418764 266.80379611 -0.04418945 266.79223633 C-1.24156235 266.79286575 -2.43893524 266.79349518 -3.67259216 266.79414368 C-9.92736957 266.08643298 -13.94600457 263.10805603 -17.97998047 258.41992188 C-20.83299407 253.74452878 -21.3702868 249.91148933 -21.16748047 244.54492188 C-21.14717773 243.51238281 -21.14717773 243.51238281 -21.12646484 242.45898438 C-21.09146417 240.77895186 -21.03767001 239.09932838 -20.97998047 237.41992188 C-21.66822906 237.42658371 -22.35647766 237.43324554 -23.06558228 237.44010925 C-30.23573124 237.50653443 -37.40579263 237.55175257 -44.57617188 237.5847168 C-47.25147768 237.59809738 -49.92630196 237.62025572 -52.6015625 237.64624023 C-56.44911798 237.68267271 -60.29634632 237.69966016 -64.14404297 237.71289062 C-65.93498886 237.73611641 -65.93498886 237.73611641 -67.76211548 237.7598114 C-78.04360379 237.76189019 -83.12585394 234.82690426 -90.56982422 227.87695312 C-96.15058123 222.18765627 -99.82521261 216.98031418 -100.14013672 208.83007812 C-99.60638095 200.79770465 -95.30597857 196.0838936 -89.97998047 190.41992188 C-88.99139245 189.26122769 -88.01102568 188.09542119 -87.04248047 186.91992188 C-86.36185547 186.09492188 -85.68123047 185.26992188 -84.97998047 184.41992188 C-85.36669922 183.69289063 -85.75341797 182.96585938 -86.15185547 182.21679688 C-89.82835082 175.11861278 -92.67376813 168.07112044 -94.97998047 160.41992188 C-96.18654297 160.39414062 -97.39310547 160.36835938 -98.63623047 160.34179688 C-100.25084785 160.28547301 -101.8654298 160.22812668 -103.47998047 160.16992188 C-104.27146484 160.15574219 -105.06294922 160.1415625 -105.87841797 160.12695312 C-112.60857141 159.85112716 -117.82095088 158.09107045 -123.00341797 153.70898438 C-123.67244141 152.88527344 -123.67244141 152.88527344 -124.35498047 152.04492188 C-124.81646484 151.5009375 -125.27794922 150.95695313 -125.75341797 150.39648438 C-129.09847561 145.00604116 -129.31813215 139.69106573 -129.29248047 133.54492188 C-129.30859375 132.78050781 -129.32470703 132.01609375 -129.34130859 131.22851562 C-129.34698756 124.53869276 -128.05171011 119.024382 -123.79248047 113.66992188 C-117.36401581 108.52715015 -111.64562175 106.81621187 -103.47998047 106.66992188 C-102.65755859 106.64027344 -101.83513672 106.610625 -100.98779297 106.58007812 C-98.98569513 106.5102375 -96.98283891 106.462718 -94.97998047 106.41992188 C-94.67705078 105.53691406 -94.37412109 104.65390625 -94.06201172 103.74414062 C-91.39569326 96.10616374 -88.48302385 88.72414 -84.97998047 81.41992188 C-85.72763672 80.741875 -86.47529297 80.06382812 -87.24560547 79.36523438 C-93.96436419 73.09507431 -99.39003021 67.49932493 -100.19091797 57.88867188 C-99.87622198 48.6194447 -94.16933602 42.07890914 -87.71435547 35.92382812 C-82.63176853 31.51662999 -78.32648795 29.29105332 -71.4987793 29.30639648 C-70.37784378 29.30647202 -69.25690826 29.30654755 -68.102005 29.30662537 C-66.89255722 29.31178665 -65.68310944 29.31694794 -64.43701172 29.32226562 C-63.19827805 29.32368057 -61.95954437 29.32509552 -60.68327332 29.32655334 C-57.3936651 29.33120585 -54.10410587 29.34018797 -50.81451416 29.35125732 C-47.45626423 29.36149558 -44.09800713 29.36605614 -40.73974609 29.37109375 C-34.15313835 29.38213042 -27.56656342 29.39887421 -20.97998047 29.41992188 C-21.01478516 28.40671875 -21.04958984 27.39351562 -21.08544922 26.34960938 C-21.11360642 24.99806358 -21.1409045 23.64649969 -21.16748047 22.29492188 C-21.19261719 21.62976563 -21.21775391 20.96460938 -21.24365234 20.27929688 C-21.33405529 14.13189634 -19.62771295 10.33485421 -15.66748047 5.73242188 C-10.6830481 1.4434917 -6.54248888 0.0456703 0 0 Z " fill="#83D8FC" transform="translate(227.97998046875,122.580078125)"/>
<path d="M0 0 C0.71285156 0.60199219 1.42570312 1.20398438 2.16015625 1.82421875 C12.10727436 10.25986511 21.0573011 19.66492192 29 30 C29.42104004 30.54462891 29.84208008 31.08925781 30.27587891 31.65039062 C53.56057502 61.94854943 68.97484172 96.43037931 76 134 C76.24556641 135.27786377 76.24556641 135.27786377 76.49609375 136.58154297 C87.20576809 194.83199275 72.99802579 259.04620962 39.48168945 307.74438477 C30.87181056 319.97245467 21.28737706 331.16780858 11 342 C9.82244141 343.24136719 9.82244141 343.24136719 8.62109375 344.5078125 C3.11942379 350.15711225 -2.77669487 355.16319307 -9 360 C-9.53834473 360.42007324 -10.07668945 360.84014648 -10.63134766 361.27294922 C-29.94855019 376.23088641 -61.39401026 399.7359993 -87 398 C-93.27539708 396.45547398 -98.26648425 393.5739445 -102.2578125 388.35546875 C-105.8883849 382.32567193 -105.83012446 375.83782934 -105 369 C-103.26104985 362.67186778 -99.22346807 358.74129406 -94 355 C-91.10397284 353.47372912 -88.11748159 352.29396608 -85.0625 351.125 C-83.36950231 350.44142837 -81.67811564 349.75385454 -79.98828125 349.0625 C-78.72878662 348.54816406 -78.72878662 348.54816406 -77.44384766 348.0234375 C-57.20937717 339.54962129 -39.9633519 326.94036511 -24 312 C-22.59427734 310.69289063 -22.59427734 310.69289063 -21.16015625 309.359375 C-8.54136014 297.3509298 1.66968391 283.26362266 10 268 C10.34369629 267.37303223 10.68739258 266.74606445 11.04150391 266.10009766 C35.30030521 221.23668333 39.84545862 169.01899895 25.65625 120.25390625 C17.30494553 93.12617898 3.16656363 68.96638016 -16.046875 48.140625 C-17.62902608 46.40658742 -19.10946881 44.65300618 -20.5625 42.8125 C-23.75196035 39.13235344 -27.25971059 36.10918794 -31 33 C-31.49725586 32.57444824 -31.99451172 32.14889648 -32.50683594 31.71044922 C-70.3229861 -0.5828783 -120.41886156 -16.52664771 -169.94091797 -12.77734375 C-187.03260573 -11.15960027 -203.71949979 -7.49145404 -219.8828125 -1.69921875 C-222 -1 -222 -1 -224 -1 C-223.55527344 -0.154375 -223.11054688 0.69125 -222.65234375 1.5625 C-217.44853906 11.99381692 -217.44853906 11.99381692 -217.8125 16.5 C-219.2082717 20.61385344 -220.54218979 22.38743228 -224 25 C-228.11795711 26.61779061 -231.82697811 27.32113717 -236.22973633 27.61010742 C-237.44152054 27.69326706 -238.65330475 27.7764267 -239.90180969 27.86210632 C-241.84726936 27.98257072 -241.84726936 27.98257072 -243.83203125 28.10546875 C-245.19198144 28.19421372 -246.55190029 28.28344008 -247.91178894 28.37312317 C-250.75672342 28.55889364 -253.60194818 28.73889939 -256.44750977 28.91479492 C-260.07254298 29.13932397 -263.69647284 29.37804515 -267.32030201 29.62115002 C-270.12799153 29.80791341 -272.93612823 29.98707227 -275.74445152 30.16402626 C-277.72369061 30.29004995 -279.70252897 30.42231783 -281.68135071 30.55473328 C-300.07897597 31.66504924 -300.07897597 31.66504924 -306 27 C-308.26754855 23.59867718 -308.77818529 22.06660296 -309 18 C-307.34924011 9.92082578 -303.63068935 2.69161222 -299.94140625 -4.61328125 C-299.35584457 -5.78585983 -298.7702829 -6.95843842 -298.16697693 -8.16654968 C-296.9356303 -10.63061705 -295.69882572 -13.0918376 -294.45776367 -15.55102539 C-292.87353479 -18.69098909 -291.30193738 -21.83707483 -289.73417759 -24.98528767 C-288.22604513 -28.01020125 -286.70842003 -31.03031159 -285.19140625 -34.05078125 C-284.63087051 -35.17478836 -284.07033478 -36.29879547 -283.49281311 -37.4568634 C-282.69695045 -39.02956245 -282.69695045 -39.02956245 -281.88500977 -40.6340332 C-281.19242821 -42.01109184 -281.19242821 -42.01109184 -280.4858551 -43.41596985 C-278.11994316 -47.53049474 -275.69866719 -51.56429614 -271 -53 C-266.32597073 -53.53636401 -263.30455587 -53.58873492 -259.3125 -51 C-255.54479547 -48.00139112 -253.26003253 -44.19720327 -251 -40 C-245.2500699 -40.64520668 -240.23298094 -42.69478776 -234.875 -44.75 C-155.63746729 -74.24737616 -63.11249509 -55.58451371 0 0 Z " fill="#83D9FD" transform="translate(411,80)"/>
<path d="M0 0 C0.67077576 -0.00846954 1.34155151 -0.01693909 2.03265381 -0.02566528 C4.23436826 -0.04892737 6.43537936 -0.05006004 8.63720703 -0.04882812 C10.17888666 -0.05593674 11.72056367 -0.06363676 13.26223755 -0.07189941 C16.48837645 -0.08531977 19.71427075 -0.08692432 22.94042969 -0.08105469 C27.05850337 -0.0751636 31.17539604 -0.1057355 35.2932415 -0.14617157 C38.4761885 -0.17212372 41.65885404 -0.1749192 44.84189224 -0.17127991 C46.35924368 -0.17296444 47.87660905 -0.18254246 49.39385605 -0.20042419 C64.77069921 -0.36170755 64.77069921 -0.36170755 71.02001953 5.41992188 C76.13334534 10.8023701 77.28223998 15.39112805 77.14501953 22.73242188 C77.12697266 23.98667969 77.10892578 25.2409375 77.09033203 26.53320312 C77.06712891 27.48582031 77.04392578 28.4384375 77.02001953 29.41992188 C77.69129883 29.41103943 78.36257813 29.40215698 79.05419922 29.39300537 C86.06241309 29.30427693 93.07046648 29.24408157 100.07910156 29.20019531 C102.69212326 29.18012254 105.30510028 29.15285829 107.91796875 29.11816406 C111.68126475 29.06945753 115.44396502 29.04690877 119.20751953 29.02929688 C120.36928711 29.00865173 121.53105469 28.98800659 122.72802734 28.96673584 C130.63119472 28.96456623 135.79648212 30.22013646 142.08984375 34.98803711 C142.57984863 35.47989502 143.06985352 35.97175293 143.57470703 36.47851562 C144.12642578 37.02958984 144.67814453 37.58066406 145.24658203 38.1484375 C145.79056641 38.71240234 146.33455078 39.27636719 146.89501953 39.85742188 C147.74580078 40.69756836 147.74580078 40.69756836 148.61376953 41.5546875 C153.46489483 46.48053393 155.3053461 50.31950223 155.33251953 57.35742188 C155.34927734 58.35644531 155.36603516 59.35546875 155.38330078 60.38476562 C154.66148885 66.4153879 151.52000891 70.29060861 147.45751953 74.60742188 C145.06317633 77.1668922 142.96730112 79.49899949 141.02001953 82.41992188 C141.99043089 84.99870021 143.01573917 87.29722472 144.27001953 89.73242188 C150.02001953 101.22105824 150.02001953 101.22105824 150.02001953 107.41992188 C151.29876953 107.37351562 152.57751953 107.32710938 153.89501953 107.27929688 C155.60332932 107.2417516 157.31166461 107.20535442 159.02001953 107.16992188 C159.85919922 107.13640625 160.69837891 107.10289062 161.56298828 107.06835938 C168.60168796 106.95923225 173.75441886 108.53850951 179.07861328 113.23632812 C179.53365234 113.81253906 179.98869141 114.38875 180.45751953 114.98242188 C180.93060547 115.56121094 181.40369141 116.14 181.89111328 116.73632812 C185.12798602 121.56363661 184.28301435 127.5989389 184.33251953 133.16992188 C184.36152344 134.24242187 184.39052734 135.31492187 184.42041016 136.41992188 C184.47881243 143.71571305 183.81765021 148.4176325 178.64282227 153.87133789 C172.56721987 159.39236207 166.41913044 159.70610759 158.64501953 159.54492188 C157.81357422 159.53589844 156.98212891 159.526875 156.12548828 159.51757812 C154.09020616 159.49418408 152.05507389 159.45831913 150.02001953 159.41992188 C149.67970703 161.27617187 149.67970703 161.27617187 149.33251953 163.16992188 C147.99808659 169.23727163 145.49251234 174.74586788 143.02001953 180.41992188 C142.34708607 182.08406814 141.67827093 183.7499137 141.02001953 185.41992188 C141.62330078 186 142.22658203 186.58007812 142.84814453 187.17773438 C155.09077581 199.14391914 155.09077581 199.14391914 155.33251953 209.16992188 C155.36990234 210.17539062 155.40728516 211.18085938 155.44580078 212.21679688 C154.52016717 219.18027905 150.02417092 223.92059344 145.20751953 228.66992188 C144.711875 229.18554688 144.21623047 229.70117188 143.70556641 230.23242188 C142.95436523 230.98265625 142.95436523 230.98265625 142.18798828 231.74804688 C141.52706177 232.41175293 141.52706177 232.41175293 140.8527832 233.08886719 C134.00302753 238.06353988 127.50468732 237.82168908 119.30517578 237.71289062 C118.09429794 237.70864578 116.8834201 237.70440094 115.635849 237.70002747 C111.78450896 237.68329177 107.9337003 237.64564759 104.08251953 237.60742188 C101.46468857 237.5923685 98.84684937 237.57868124 96.22900391 237.56640625 C89.82582911 237.53340486 83.4229623 237.48325573 77.02001953 237.41992188 C77.04829834 238.85646118 77.04829834 238.85646118 77.07714844 240.32202148 C77.09181152 241.58022705 77.10647461 242.83843262 77.12158203 244.13476562 C77.14986084 246.00442993 77.14986084 246.00442993 77.17871094 247.91186523 C76.93176383 253.37091592 75.29913438 256.99094742 71.59423828 260.93945312 C66.47543815 265.52917831 61.95226646 266.6686331 55.21362305 266.69458008 C54.21748993 266.70224648 54.21748993 266.70224648 53.20123291 266.71006775 C51.01703756 266.72391023 48.83315964 266.72301112 46.64892578 266.72070312 C45.12344751 266.72459292 43.59797031 266.72892818 42.07249451 266.73368835 C38.87910446 266.741139 35.685825 266.74086765 32.49243164 266.7355957 C28.40917671 266.72980169 24.32637548 266.74673568 20.24319553 266.76994038 C17.09381992 266.78470363 13.94455294 266.78554593 10.79514885 266.78243065 C9.29012084 266.78294253 7.78508653 266.78815524 6.28009224 266.79824257 C4.17170214 266.81064094 2.06418764 266.80379611 -0.04418945 266.79223633 C-1.24156235 266.79286575 -2.43893524 266.79349518 -3.67259216 266.79414368 C-9.92736957 266.08643298 -13.94600457 263.10805603 -17.97998047 258.41992188 C-20.83299407 253.74452878 -21.3702868 249.91148933 -21.16748047 244.54492188 C-21.14717773 243.51238281 -21.14717773 243.51238281 -21.12646484 242.45898438 C-21.09146417 240.77895186 -21.03767001 239.09932838 -20.97998047 237.41992188 C-21.66822906 237.42658371 -22.35647766 237.43324554 -23.06558228 237.44010925 C-30.23573124 237.50653443 -37.40579263 237.55175257 -44.57617188 237.5847168 C-47.25147768 237.59809738 -49.92630196 237.62025572 -52.6015625 237.64624023 C-56.44911798 237.68267271 -60.29634632 237.69966016 -64.14404297 237.71289062 C-65.93498886 237.73611641 -65.93498886 237.73611641 -67.76211548 237.7598114 C-78.04360379 237.76189019 -83.12585394 234.82690426 -90.56982422 227.87695312 C-96.15058123 222.18765627 -99.82521261 216.98031418 -100.14013672 208.83007812 C-99.60638095 200.79770465 -95.30597857 196.0838936 -89.97998047 190.41992188 C-88.99139245 189.26122769 -88.01102568 188.09542119 -87.04248047 186.91992188 C-86.36185547 186.09492188 -85.68123047 185.26992188 -84.97998047 184.41992188 C-85.36669922 183.69289063 -85.75341797 182.96585938 -86.15185547 182.21679688 C-89.82835082 175.11861278 -92.67376813 168.07112044 -94.97998047 160.41992188 C-96.18654297 160.39414062 -97.39310547 160.36835938 -98.63623047 160.34179688 C-100.25084785 160.28547301 -101.8654298 160.22812668 -103.47998047 160.16992188 C-104.27146484 160.15574219 -105.06294922 160.1415625 -105.87841797 160.12695312 C-112.60857141 159.85112716 -117.82095088 158.09107045 -123.00341797 153.70898438 C-123.67244141 152.88527344 -123.67244141 152.88527344 -124.35498047 152.04492188 C-124.81646484 151.5009375 -125.27794922 150.95695313 -125.75341797 150.39648438 C-129.09847561 145.00604116 -129.31813215 139.69106573 -129.29248047 133.54492188 C-129.30859375 132.78050781 -129.32470703 132.01609375 -129.34130859 131.22851562 C-129.34698756 124.53869276 -128.05171011 119.024382 -123.79248047 113.66992188 C-117.36401581 108.52715015 -111.64562175 106.81621187 -103.47998047 106.66992188 C-102.65755859 106.64027344 -101.83513672 106.610625 -100.98779297 106.58007812 C-98.98569513 106.5102375 -96.98283891 106.462718 -94.97998047 106.41992188 C-94.67705078 105.53691406 -94.37412109 104.65390625 -94.06201172 103.74414062 C-91.39569326 96.10616374 -88.48302385 88.72414 -84.97998047 81.41992188 C-85.72763672 80.741875 -86.47529297 80.06382812 -87.24560547 79.36523438 C-93.96436419 73.09507431 -99.39003021 67.49932493 -100.19091797 57.88867188 C-99.87622198 48.6194447 -94.16933602 42.07890914 -87.71435547 35.92382812 C-82.63176853 31.51662999 -78.32648795 29.29105332 -71.4987793 29.30639648 C-70.37784378 29.30647202 -69.25690826 29.30654755 -68.102005 29.30662537 C-66.89255722 29.31178665 -65.68310944 29.31694794 -64.43701172 29.32226562 C-63.19827805 29.32368057 -61.95954437 29.32509552 -60.68327332 29.32655334 C-57.3936651 29.33120585 -54.10410587 29.34018797 -50.81451416 29.35125732 C-47.45626423 29.36149558 -44.09800713 29.36605614 -40.73974609 29.37109375 C-34.15313835 29.38213042 -27.56656342 29.39887421 -20.97998047 29.41992188 C-21.01478516 28.40671875 -21.04958984 27.39351562 -21.08544922 26.34960938 C-21.11360642 24.99806358 -21.1409045 23.64649969 -21.16748047 22.29492188 C-21.19261719 21.62976563 -21.21775391 20.96460938 -21.24365234 20.27929688 C-21.33405529 14.13189634 -19.62771295 10.33485421 -15.66748047 5.73242188 C-10.6830481 1.4434917 -6.54248888 0.0456703 0 0 Z M-11.61352539 14.22021484 C-13.29076365 16.92021782 -13.40383729 18.67876751 -13.49169922 21.84179688 C-13.54487305 23.37900391 -13.54487305 23.37900391 -13.59912109 24.94726562 C-13.62167969 26.01074219 -13.64423828 27.07421875 -13.66748047 28.16992188 C-13.70164062 29.24886719 -13.73580078 30.3278125 -13.77099609 31.43945312 C-13.8533871 34.09950564 -13.92256692 36.75923223 -13.97998047 39.41992188 C-15.14658203 39.855625 -16.31318359 40.29132813 -17.51513672 40.74023438 C-31.24856844 45.71239983 -31.24856844 45.71239983 -44.05029297 52.63476562 C-46.86567844 53.78029696 -48.13290193 53.4986812 -50.97998047 52.41992188 C-53.09946799 50.50867472 -55.00159156 48.63988875 -56.91748047 46.54492188 C-60.6317126 42.50958838 -63.76149048 39.49292204 -68.97998047 37.41992188 C-73.79200062 37.24169891 -76.4016761 38.46365931 -79.97998047 41.48242188 C-81.33297867 42.77464086 -82.66603533 44.08801264 -83.97998047 45.41992188 C-84.66060547 46.07863281 -85.34123047 46.73734375 -86.04248047 47.41601562 C-89.12814311 50.60743687 -90.81324791 52.55594408 -91.66748047 56.98242188 C-90.04362312 65.10170863 -84.85502386 69.83239707 -78.96240234 75.14453125 C-77.36669922 76.65039062 -77.36669922 76.65039062 -74.97998047 79.41992188 C-75.33706051 82.41251992 -76.60216709 84.90410532 -77.94091797 87.58007812 C-78.32884521 88.36906494 -78.71677246 89.15805176 -79.11645508 89.97094727 C-79.52516846 90.79973389 -79.93388184 91.62852051 -80.35498047 92.48242188 C-83.38515076 98.7164061 -86.00800569 104.66410089 -87.44482422 111.48632812 C-87.97998047 113.41992188 -87.97998047 113.41992188 -89.97998047 115.41992188 C-92.22314453 115.65942383 -92.22314453 115.65942383 -94.99560547 115.65820312 C-95.99978516 115.67431641 -97.00396484 115.69042969 -98.03857422 115.70703125 C-100.15049297 115.72383354 -102.26253631 115.72921518 -104.37451172 115.72265625 C-110.99100286 115.77950611 -110.99100286 115.77950611 -116.65185547 118.83789062 C-120.71341006 123.34239999 -120.19531867 126.90490665 -120.22998047 132.73242188 C-120.25060547 133.58771484 -120.27123047 134.44300781 -120.29248047 135.32421875 C-120.3225372 140.17462354 -120.21442427 143.53713236 -116.97998047 147.41992188 C-113.85628359 150.24182475 -111.80794281 150.80085501 -107.62841797 150.86132812 C-106.10474609 150.9009668 -106.10474609 150.9009668 -104.55029297 150.94140625 C-103.49583984 150.95494141 -102.44138672 150.96847656 -101.35498047 150.98242188 C-99.25846734 151.01677009 -97.16206747 151.05932442 -95.06591797 151.11132812 C-94.13827637 151.12365479 -93.21063477 151.13598145 -92.25488281 151.14868164 C-89.97998047 151.41992188 -89.97998047 151.41992188 -87.97998047 153.41992188 C-87.38749971 155.27949019 -86.85581413 157.15860445 -86.35498047 159.04492188 C-84.48612905 165.42601911 -81.83476415 171.09052482 -78.70996094 176.94970703 C-74.81654675 184.32953888 -74.81654675 184.32953888 -74.97998047 187.41992188 C-76.77551997 189.89718602 -78.96630917 191.87455011 -81.22998047 193.91992188 C-88.34185316 200.20695425 -88.34185316 200.20695425 -91.35498047 208.91992188 C-90.70424751 214.99342952 -87.26594367 218.40936296 -83.04248047 222.60742188 C-82.18783203 223.46722656 -81.33318359 224.32703125 -80.45263672 225.21289062 C-76.94013442 228.3480625 -75.07343971 229.36336364 -70.35498047 229.60742188 C-63.53331351 228.56380865 -58.61712004 222.36765789 -54.22216797 217.45507812 C-52.72998047 215.79492188 -52.72998047 215.79492188 -49.97998047 213.41992188 C-44.78481029 213.63795362 -40.88235122 215.82131552 -36.41748047 218.23242188 C-30.17035086 221.49897573 -24.17303102 223.86403197 -17.35888672 225.72851562 C-14.97998047 226.41992188 -14.97998047 226.41992188 -13.97998047 227.41992188 C-13.87113654 228.98364013 -13.824185 230.55176628 -13.80419922 232.11914062 C-13.76842773 233.56256836 -13.76842773 233.56256836 -13.73193359 235.03515625 C-13.6893789 237.06359643 -13.65790612 239.0923031 -13.63818359 241.12109375 C-13.47007082 246.99722157 -13.12112425 250.89388694 -8.97998047 255.41992188 C-4.76293757 258.92547775 -0.79079606 258.90757954 4.45751953 258.85742188 C5.19550781 258.87740234 5.93349609 258.89738281 6.69384766 258.91796875 C11.90445273 258.9133371 14.94954192 257.92688712 19.02001953 254.41992188 C23.152311 249.81184418 22.57603517 243.97913769 22.70751953 238.10742188 C22.74167969 237.08068359 22.77583984 236.05394531 22.81103516 234.99609375 C22.89325362 232.47081224 22.96248889 229.94586647 23.02001953 227.41992188 C32.46121144 223.63046092 32.46121144 223.63046092 37.03173828 221.85742188 C38.24474609 221.38304687 39.45775391 220.90867187 40.70751953 220.41992188 C41.92826172 219.94554687 43.14900391 219.47117187 44.40673828 218.98242188 C47.08563512 217.82398 49.23256321 216.70051584 51.66455078 215.16992188 C55.02001953 213.41992188 55.02001953 213.41992188 57.57470703 213.29882812 C61.16936895 214.94686003 63.47418563 217.49010519 66.14501953 220.35742188 C71.82901385 226.70431914 71.82901385 226.70431914 79.70751953 228.98242188 C85.0398347 228.88151926 87.50781837 227.06069748 91.19580078 223.36523438 C91.79779297 222.72328125 92.39978516 222.08132813 93.02001953 221.41992188 C94.16580755 220.33654061 95.31163679 219.25320295 96.45751953 218.16992188 C99.36752511 215.04698905 99.88511818 213.4027746 100.45751953 209.23242188 C99.47932836 200.70818455 91.96299592 195.27829507 85.89892578 189.81445312 C84.02001953 187.41992188 84.02001953 187.41992188 83.99658203 185.08789062 C85.35138758 181.55608838 87.05571682 178.25152715 88.83251953 174.91992188 C92.07672219 168.6810706 94.42248548 162.70783049 96.23095703 155.89648438 C97.02001953 153.41992188 97.02001953 153.41992188 99.02001953 151.41992188 C101.26318359 151.18041992 101.26318359 151.18041992 104.03564453 151.18164062 C105.03982422 151.16552734 106.04400391 151.14941406 107.07861328 151.1328125 C109.19053203 151.11601021 111.30257538 151.11062857 113.41455078 151.1171875 C120.01229353 151.05933127 120.01229353 151.05933127 125.69189453 148.06445312 C129.73934078 143.46693448 129.29831156 138.93187941 129.39501953 133.10742188 C129.45109375 131.84381836 129.45109375 131.84381836 129.50830078 130.5546875 C129.56942472 126.21149202 129.42350093 123.32428096 126.62158203 119.87695312 C123.10443392 116.55520213 121.60423625 116.30364938 116.89892578 116.27929688 C115.88121094 116.25996094 114.86349609 116.240625 113.81494141 116.22070312 C111.6640879 116.18691328 109.51293373 116.16862462 107.36181641 116.16601562 C99.56263849 115.9785591 99.56263849 115.9785591 96.90283203 113.24023438 C96.61150391 112.30953125 96.32017578 111.37882812 96.02001953 110.41992188 C95.72740234 109.494375 95.43478516 108.56882812 95.13330078 107.61523438 C94.73691406 106.09542969 94.73691406 106.09542969 94.33251953 104.54492188 C92.52672868 98.30996684 89.86622518 92.9978839 86.57397461 87.44580078 C83.96185773 82.90687292 83.96185773 82.90687292 84.26196289 80.39428711 C85.75846778 76.49662687 89.52460251 73.81768447 92.53955078 71.01757812 C96.8648009 66.88268132 99.52926497 63.06999651 100.64501953 57.04492188 C99.72318319 51.69827109 96.81552588 49.12144426 93.02001953 45.41992188 C92.39482422 44.73929688 91.76962891 44.05867188 91.12548828 43.35742188 C87.75429177 39.95189546 84.99590932 37.90576999 80.14501953 37.41992188 C72.65552225 37.94994784 67.97260206 44.09826653 63.27001953 49.38867188 C61.77001953 51.04492188 61.77001953 51.04492188 59.02001953 53.41992188 C54.22896725 53.16313769 50.75430234 51.43025179 46.58251953 49.16992188 C40.21025006 45.81354228 33.77639554 43.49744043 26.90673828 41.36523438 C24.02001953 40.41992188 24.02001953 40.41992188 23.02001953 39.41992188 C22.92317674 37.78279074 22.88801008 36.14192345 22.87939453 34.50195312 C22.86005859 33.49455078 22.84072266 32.48714844 22.82080078 31.44921875 C22.78725789 29.3244053 22.7687417 27.19929531 22.76611328 25.07421875 C22.68429855 18.48954769 22.68429855 18.48954769 19.72314453 12.80664062 C14.76964856 8.43296138 11.19046262 8.05616834 4.64501953 8.04492188 C3.90251953 8.02042969 3.16001953 7.9959375 2.39501953 7.97070312 C-3.6856437 7.93847346 -7.42609534 9.60534274 -11.61352539 14.22021484 Z " fill="#633330" transform="translate(227.97998046875,122.580078125)"/>
<path d="M0 0 C14.6533344 12.55051451 26.197904 28.3686494 27.82519531 48.11865234 C28.41308781 61.94283564 28.24630724 74.43940366 22.5859375 87.21484375 C22.08964844 88.34792969 21.59335937 89.48101562 21.08203125 90.6484375 C16.90945369 99.18462629 11.26027649 105.59905159 4.5859375 112.21484375 C3.63460937 113.21644531 3.63460937 113.21644531 2.6640625 114.23828125 C-10.91193387 127.51392372 -30.88757573 131.51298617 -49.15161133 131.45703125 C-65.54180504 131.20533425 -81.28643949 124.24618445 -93.4140625 113.21484375 C-94.23261719 112.49941406 -95.05117187 111.78398437 -95.89453125 111.046875 C-107.32447277 100.44694436 -116.49050506 84.09019294 -117.62109375 68.32861328 C-117.71868967 65.038309 -117.73604316 61.75652862 -117.7265625 58.46484375 C-117.74267578 57.36140625 -117.75878906 56.25796875 -117.77539062 55.12109375 C-117.78719054 35.0140397 -109.25518175 19.38950477 -95.6640625 5.08984375 C-70.0305392 -19.92320092 -28.12109113 -21.99863135 0 0 Z " fill="#F8A186" transform="translate(277.4140625,197.78515625)"/>
<path d="M0 0 C0.71285156 0.60199219 1.42570312 1.20398438 2.16015625 1.82421875 C12.10727436 10.25986511 21.0573011 19.66492192 29 30 C29.42104004 30.54462891 29.84208008 31.08925781 30.27587891 31.65039062 C53.56057502 61.94854943 68.97484172 96.43037931 76 134 C76.24556641 135.27786377 76.24556641 135.27786377 76.49609375 136.58154297 C87.20576809 194.83199275 72.99802579 259.04620962 39.48168945 307.74438477 C30.87181056 319.97245467 21.28737706 331.16780858 11 342 C9.82244141 343.24136719 9.82244141 343.24136719 8.62109375 344.5078125 C3.11942379 350.15711225 -2.77669487 355.16319307 -9 360 C-9.53834473 360.42007324 -10.07668945 360.84014648 -10.63134766 361.27294922 C-29.94855019 376.23088641 -61.39401026 399.7359993 -87 398 C-93.27539708 396.45547398 -98.26648425 393.5739445 -102.2578125 388.35546875 C-105.8883849 382.32567193 -105.83012446 375.83782934 -105 369 C-103.26104985 362.67186778 -99.22346807 358.74129406 -94 355 C-91.10397284 353.47372912 -88.11748159 352.29396608 -85.0625 351.125 C-83.36950231 350.44142837 -81.67811564 349.75385454 -79.98828125 349.0625 C-78.72878662 348.54816406 -78.72878662 348.54816406 -77.44384766 348.0234375 C-57.20937717 339.54962129 -39.9633519 326.94036511 -24 312 C-22.59427734 310.69289063 -22.59427734 310.69289063 -21.16015625 309.359375 C-8.54136014 297.3509298 1.66968391 283.26362266 10 268 C10.34369629 267.37303223 10.68739258 266.74606445 11.04150391 266.10009766 C35.30030521 221.23668333 39.84545862 169.01899895 25.65625 120.25390625 C17.30494553 93.12617898 3.16656363 68.96638016 -16.046875 48.140625 C-17.62902608 46.40658742 -19.10946881 44.65300618 -20.5625 42.8125 C-23.75196035 39.13235344 -27.25971059 36.10918794 -31 33 C-31.49725586 32.57444824 -31.99451172 32.14889648 -32.50683594 31.71044922 C-70.3229861 -0.5828783 -120.41886156 -16.52664771 -169.94091797 -12.77734375 C-187.03260573 -11.15960027 -203.71949979 -7.49145404 -219.8828125 -1.69921875 C-222 -1 -222 -1 -224 -1 C-223.55527344 -0.154375 -223.11054688 0.69125 -222.65234375 1.5625 C-217.44853906 11.99381692 -217.44853906 11.99381692 -217.8125 16.5 C-219.2082717 20.61385344 -220.54218979 22.38743228 -224 25 C-228.11795711 26.61779061 -231.82697811 27.32113717 -236.22973633 27.61010742 C-237.44152054 27.69326706 -238.65330475 27.7764267 -239.90180969 27.86210632 C-241.84726936 27.98257072 -241.84726936 27.98257072 -243.83203125 28.10546875 C-245.19198144 28.19421372 -246.55190029 28.28344008 -247.91178894 28.37312317 C-250.75672342 28.55889364 -253.60194818 28.73889939 -256.44750977 28.91479492 C-260.07254298 29.13932397 -263.69647284 29.37804515 -267.32030201 29.62115002 C-270.12799153 29.80791341 -272.93612823 29.98707227 -275.74445152 30.16402626 C-277.72369061 30.29004995 -279.70252897 30.42231783 -281.68135071 30.55473328 C-300.07897597 31.66504924 -300.07897597 31.66504924 -306 27 C-308.26754855 23.59867718 -308.77818529 22.06660296 -309 18 C-307.34924011 9.92082578 -303.63068935 2.69161222 -299.94140625 -4.61328125 C-299.35584457 -5.78585983 -298.7702829 -6.95843842 -298.16697693 -8.16654968 C-296.9356303 -10.63061705 -295.69882572 -13.0918376 -294.45776367 -15.55102539 C-292.87353479 -18.69098909 -291.30193738 -21.83707483 -289.73417759 -24.98528767 C-288.22604513 -28.01020125 -286.70842003 -31.03031159 -285.19140625 -34.05078125 C-284.63087051 -35.17478836 -284.07033478 -36.29879547 -283.49281311 -37.4568634 C-282.69695045 -39.02956245 -282.69695045 -39.02956245 -281.88500977 -40.6340332 C-281.19242821 -42.01109184 -281.19242821 -42.01109184 -280.4858551 -43.41596985 C-278.11994316 -47.53049474 -275.69866719 -51.56429614 -271 -53 C-266.32597073 -53.53636401 -263.30455587 -53.58873492 -259.3125 -51 C-255.54479547 -48.00139112 -253.26003253 -44.19720327 -251 -40 C-245.2500699 -40.64520668 -240.23298094 -42.69478776 -234.875 -44.75 C-155.63746729 -74.24737616 -63.11249509 -55.58451371 0 0 Z M-195 -47 C-195.75539063 -46.87141602 -196.51078125 -46.74283203 -197.2890625 -46.61035156 C-214.23675371 -43.62628228 -231.60784555 -38.17276935 -247.13818359 -30.79003906 C-249.70090625 -29.70257899 -252.24259568 -29.2828107 -255 -29 C-255.39251953 -30.09054688 -255.39251953 -30.09054688 -255.79296875 -31.203125 C-257.02700915 -34.06258431 -258.43638777 -36.27070313 -260.3125 -38.75 C-261.17294922 -39.91789062 -261.17294922 -39.91789062 -262.05078125 -41.109375 C-264.34836925 -43.33789723 -265.8622837 -43.67596734 -269 -44 C-272.83994399 -39.65871468 -275.23323107 -34.93635869 -277.7734375 -29.78125 C-278.44277817 -28.43975891 -278.44277817 -28.43975891 -279.12564087 -27.07116699 C-280.06801917 -25.17970308 -281.00752411 -23.2868052 -281.94433594 -21.39257812 C-283.35784306 -18.53468864 -284.779625 -15.68104803 -286.203125 -12.828125 C-288.43271859 -8.35230562 -290.64100599 -3.86650532 -292.83581543 0.62646484 C-293.89153103 2.77885387 -294.96218156 4.92308235 -296.03613281 7.06640625 C-296.59397461 8.20980469 -297.15181641 9.35320312 -297.7265625 10.53125 C-298.43546631 11.96307617 -298.43546631 11.96307617 -299.15869141 13.42382812 C-300.13306896 16.40747059 -299.9405806 18.03550895 -299 21 C-297.36475349 22.63524651 -295.42869765 22.16041467 -293.23902893 22.18362427 C-292.54011032 22.18232513 -291.84119171 22.181026 -291.12109375 22.1796875 C-290.3783873 22.17846893 -289.63568085 22.17725037 -288.87046814 22.17599487 C-278.42640814 22.07012629 -268.01860439 21.21636967 -257.6105957 20.40087891 C-254.01786846 20.12152972 -250.42414374 19.85915794 -246.83007812 19.59765625 C-244.54419315 19.42288814 -242.25838253 19.24714403 -239.97265625 19.0703125 C-238.89887222 18.99313995 -237.8250882 18.91596741 -236.71876526 18.8364563 C-235.23967934 18.71655838 -235.23967934 18.71655838 -233.73071289 18.59423828 C-232.86265518 18.52761993 -231.99459747 18.46100159 -231.10023499 18.3923645 C-228.78840992 18.16522761 -228.78840992 18.16522761 -227 16 C-227.3128882 10.07982583 -230.02430593 6.9399493 -233.6015625 2.46484375 C-235 0 -235 0 -234.89111328 -2.4921875 C-234 -5 -234 -5 -231.89160156 -6.45678711 C-230.9837793 -6.8306958 -230.07595703 -7.20460449 -229.140625 -7.58984375 C-228.14095703 -8.00218262 -227.14128906 -8.41452148 -226.11132812 -8.83935547 C-217.24343448 -12.14741937 -208.16074599 -14.64181681 -199 -17 C-198.10861328 -17.23170898 -197.21722656 -17.46341797 -196.29882812 -17.70214844 C-169.35830045 -24.36033673 -137.91772842 -23.19688712 -111 -17 C-109.73027344 -16.71125 -108.46054687 -16.4225 -107.15234375 -16.125 C-103.70432853 -15.22166034 -100.37170027 -14.15663505 -97 -13 C-96.21125488 -12.73735352 -95.42250977 -12.47470703 -94.60986328 -12.20410156 C-76.26895795 -6.05764005 -58.68864327 1.53760097 -43 13 C-42.10450439 13.63711914 -42.10450439 13.63711914 -41.19091797 14.28710938 C3.50882807 46.11449571 30.36388799 92.41417359 40.75 145.859375 C48.55141565 196.35187072 35.23880694 250.37580543 5.3984375 291.65234375 C0.94782611 297.63667534 -3.87629581 303.27190935 -8.9375 308.74609375 C-10.7622416 310.7401769 -12.4727033 312.78723501 -14.1875 314.875 C-32.48063384 335.72163765 -58.37715389 349.83720947 -83.67382812 360.15844727 C-89.91276673 362.7722559 -93.87833793 364.75667586 -97 371 C-97.42806533 376.45783298 -96.70488295 380.22137346 -94 385 C-89.80518584 388.99018908 -86.38927856 389.45624889 -80.8605957 389.35913086 C-75.4588257 388.68097061 -70.76616352 386.35285457 -65.875 384.0625 C-64.77623535 383.56177979 -63.6774707 383.06105957 -62.54541016 382.54516602 C-41.0926248 372.63116415 -21.81450203 360.10111288 -4.359375 344.13671875 C-2.31832038 342.28828021 -0.23625718 340.51665115 1.875 338.75 C26.74254542 316.99089776 43.70314503 287.20890055 56 257 C56.35046387 256.15453613 56.70092773 255.30907227 57.06201172 254.43798828 C59.19350847 249.23442321 61.02818109 244.05174482 62.5 238.625 C62.70794189 237.85953857 62.91588379 237.09407715 63.13012695 236.30541992 C78.67497095 177.69322653 71.48789151 115.69916029 41.17626953 62.97314453 C9.94491969 10.5838192 -39.24807216 -26.8227122 -98.2421875 -42.6171875 C-130.06514729 -50.59832711 -162.62484555 -52.73625205 -195 -47 Z " fill="#63332F" transform="translate(411,80)"/>
<path d="M0 0 C4.58978038 -0.0992963 9.17892788 -0.17166748 13.76953125 -0.21972656 C15.32921244 -0.23977222 16.88881913 -0.26701657 18.44824219 -0.30175781 C20.69745314 -0.35059126 22.9456659 -0.37303815 25.1953125 -0.390625 C26.23161301 -0.42159271 26.23161301 -0.42159271 27.28884888 -0.45318604 C33.58757432 -0.45606835 36.94418184 2.16398629 41.484375 6.21875 C42.60585938 7.34796875 42.60585938 7.34796875 43.75 8.5 C44.50796875 9.2528125 45.2659375 10.005625 46.046875 10.78125 C48.67886892 13.77119509 49.86028483 15.92885039 50.375 19.875 C49.49942069 27.17149425 43.21011083 31.90107089 37.98242188 36.5 C35.38484247 38.94178823 34.02372986 40.26437428 33.90625 43.90625 C35.22250194 47.62936262 36.93315448 51.04018977 38.8125 54.5 C42.23506334 61.0210925 44.50841127 67.24197666 46.30859375 74.40234375 C46.74382991 76.910977 46.74382991 76.910977 48 78 C49.7214974 78.10914339 51.44703654 78.15583511 53.171875 78.17578125 C54.22890625 78.19962891 55.2859375 78.22347656 56.375 78.24804688 C58.60918615 78.29071362 60.84361805 78.32212692 63.078125 78.34179688 C71.21914663 78.55421431 71.21914663 78.55421431 75.140625 80.79296875 C79.11105697 85.5057714 79.33863682 89.29034736 79.3125 95.375 C79.33666992 96.48875 79.33666992 96.48875 79.36132812 97.625 C79.3656109 102.47309937 78.72286275 105.83272925 76 110 C72.8477875 112.93303488 70.61676601 113.39849027 66.359375 113.51171875 C65.28945313 113.54716797 64.21953125 113.58261719 63.1171875 113.61914062 C61.45042969 113.65297852 61.45042969 113.65297852 59.75 113.6875 C58.62335938 113.72166016 57.49671875 113.75582031 56.3359375 113.79101562 C53.55739099 113.87343014 50.77915748 113.94260298 48 114 C46.50015071 117.98036926 45.00799601 121.96158694 43.5703125 125.96484375 C41.12755035 132.70392962 38.78725195 139.09620578 34.78515625 145.10546875 C33.60199509 147.9603601 33.85908728 149.09965778 35 152 C37.14559205 154.59578493 39.55086347 156.88058695 42 159.1875 C43.29364026 160.42893627 44.5854018 161.67233413 45.875 162.91796875 C46.73738281 163.73430786 46.73738281 163.73430786 47.6171875 164.56713867 C49.80609994 166.83527552 50.00394168 168.04099352 50.3125 171.25 C49.63972874 179.32325513 42.82055255 184.87627416 37 190 C33.32792978 192.45056242 29.65036515 192.25802232 25.390625 192.1953125 C24.30041046 192.19106766 24.30041046 192.19106766 23.18817139 192.18673706 C20.87527749 192.17557523 18.56277612 192.15047851 16.25 192.125 C14.67839102 192.11496501 13.10677596 192.10584006 11.53515625 192.09765625 C7.68995378 192.07564904 3.84504336 192.04114715 0 192 C0 191.34 0 190.68 0 190 C1.48409088 188.7797475 2.96981723 187.56134939 4.46875 186.359375 C8.36247651 182.90269943 9.67770995 178.70723645 10.2734375 173.703125 C10.54816773 167.06733321 9.31820812 163.055943 5 158 C2.61195701 155.66310126 0.2044883 153.38240369 -2.3046875 151.17578125 C-4 149 -4 149 -3.90234375 146.546875 C-2.96983365 143.91485516 -1.91058109 141.44803487 -0.6875 138.9375 C2.04573552 133.10553816 4.08147016 127.14143911 6 121 C6.57443848 120.98541748 7.14887695 120.97083496 7.74072266 120.95581055 C10.36945696 120.88086275 12.99698552 120.78436006 15.625 120.6875 C16.52863281 120.66494141 17.43226563 120.64238281 18.36328125 120.61914062 C23.6683218 120.40616454 27.34471162 119.78601104 32 117 C32.99 116.67 33.98 116.34 35 116 C36.15922128 114.26857146 36.15922128 114.26857146 37 112 C37.34289062 111.16726563 37.68578125 110.33453125 38.0390625 109.4765625 C39.29216113 104.94299428 39.32979682 100.74301977 39.3125 96.0625 C39.32861328 95.19431641 39.34472656 94.32613281 39.36132812 93.43164062 C39.36661178 86.44136677 38.24440483 81.65784783 33.625 76.1875 C28.08848276 71.57373563 22.61927572 71.61014151 15.6875 71.375 C14.75615234 71.33632812 13.82480469 71.29765625 12.86523438 71.2578125 C10.57701593 71.16393687 8.28879705 71.07825491 6 71 C5.69707031 70.03320312 5.39414062 69.06640625 5.08203125 68.0703125 C2.83477117 61.04559081 0.52632177 54.47527038 -3.1796875 48.05078125 C-4 46 -4 46 -3.90234375 44 C-2.66634388 41.26046783 -0.89226785 39.71906186 1.3125 37.6875 C6.95461837 32.15319281 10.13849022 28.31285609 10.625 20.125 C10.41865907 13.79985677 8.26340636 9.60565228 4 5 C3.27296875 4.46503906 2.5459375 3.93007812 1.796875 3.37890625 C1.20390625 2.92386719 0.6109375 2.46882812 0 2 C0 1.34 0 0.68 0 0 Z " fill="#52B6D6" transform="translate(325,160)"/>
<path d="M0 0 C14.6533344 12.55051451 26.197904 28.3686494 27.82519531 48.11865234 C28.41308781 61.94283564 28.24630724 74.43940366 22.5859375 87.21484375 C22.08964844 88.34792969 21.59335937 89.48101562 21.08203125 90.6484375 C16.90945369 99.18462629 11.26027649 105.59905159 4.5859375 112.21484375 C3.63460937 113.21644531 3.63460937 113.21644531 2.6640625 114.23828125 C-10.91193387 127.51392372 -30.88757573 131.51298617 -49.15161133 131.45703125 C-65.54180504 131.20533425 -81.28643949 124.24618445 -93.4140625 113.21484375 C-94.23261719 112.49941406 -95.05117187 111.78398437 -95.89453125 111.046875 C-107.32447277 100.44694436 -116.49050506 84.09019294 -117.62109375 68.32861328 C-117.71868967 65.038309 -117.73604316 61.75652862 -117.7265625 58.46484375 C-117.74267578 57.36140625 -117.75878906 56.25796875 -117.77539062 55.12109375 C-117.78719054 35.0140397 -109.25518175 19.38950477 -95.6640625 5.08984375 C-70.0305392 -19.92320092 -28.12109113 -21.99863135 0 0 Z M-89.1484375 22.14453125 C-99.84364253 35.43084266 -102.61832457 49.61748934 -101.4140625 66.21484375 C-99.23751955 81.8713208 -90.96658912 94.66682706 -78.71484375 104.34765625 C-65.54879728 113.22752993 -50.56965846 117.51953421 -34.80859375 114.53125 C-18.80114167 110.24956748 -4.47464119 102.1517777 4.34375 87.671875 C11.25079179 74.00983322 14.19948078 58.48846546 10.4609375 43.40234375 C4.705546 25.92496223 -5.57818385 14.53700323 -21.75390625 5.9765625 C-45.50718663 -5.50349392 -72.21847912 3.30804603 -89.1484375 22.14453125 Z " fill="#F7DB9B" transform="translate(277.4140625,197.78515625)"/>
<path d="M0 0 C5.70266329 5.03777878 10.66983195 10.94626141 15.4921875 16.81640625 C24.14427382 27.26906189 35.68570128 35.44708126 46.625 43.375 C51.37551906 46.90743725 55.01441748 51.19105701 56.51953125 57.0078125 C57.48043074 63.9519128 56.48608052 70.10270319 52.671875 76.08203125 C48.22752929 81.63746339 43.67220169 83.94185329 36.625 84.875 C21.64965499 85.80339066 9.52544299 73.27694992 -1 64 C-2.26457031 62.90365234 -2.26457031 62.90365234 -3.5546875 61.78515625 C-35.53896414 33.62850615 -35.53896414 33.62850615 -36.95703125 19.20703125 C-37.09018558 12.36774053 -35.08395754 7.01243076 -30.77734375 1.7265625 C-22.31159749 -6.49730529 -9.31445388 -7.14830181 0 0 Z " fill="#F7A186" transform="translate(104,370)"/>
<path d="M0 0 C5.67342334 4.28817096 8.48265287 9.5385403 9.59765625 16.5234375 C9.97805751 24.11195504 7.99679457 29.16888282 4.125 35.5625 C-4.57049792 50.28366279 -11.43056861 65.0981514 -16.44165039 81.48266602 C-18.88255096 89.28197105 -22.1070069 94.68954497 -28.875 99.5625 C-34.77296985 102.37744016 -41.38246831 102.74357385 -47.56640625 100.65234375 C-54.08410074 97.63147492 -57.99894772 94.40394038 -61.1875 87.875 C-63.20457184 78.15638114 -61.24311462 69.96234498 -58 60.75 C-57.59579834 59.5758252 -57.19159668 58.40165039 -56.77514648 57.19189453 C-38.82372951 6.21635173 -38.82372951 6.21635173 -20.875 -2.4375 C-13.69141618 -4.2686096 -6.44544325 -3.81552995 0 0 Z " fill="#F7DB9C" transform="translate(90.875,121.4375)"/>
<path d="M0 0 C5.29314438 3.09869494 9.18976248 7.84353466 11.625 13.4375 C12.0480957 15.91333008 12.0480957 15.91333008 12.30078125 18.70703125 C12.40366455 19.74915771 12.50654785 20.79128418 12.61254883 21.86499023 C12.71978271 22.98204346 12.8270166 24.09909668 12.9375 25.25 C14.76282183 42.38131904 18.02947052 58.96096275 23.74536133 75.23803711 C26.05600374 81.9816504 26.44406675 87.79334055 23.65625 94.453125 C20.49322539 100.53955114 16.38701379 104.29842934 9.98046875 106.77734375 C3.53117663 108.5848568 -2.15565585 107.91833721 -8.11181641 104.84936523 C-15.80251786 100.05159539 -18.93835325 92.7258867 -21.5 84.375 C-21.83273926 83.33150391 -22.16547852 82.28800781 -22.50830078 81.21289062 C-28.37683528 62.29020934 -32.33243216 42.77910159 -32.75 22.9375 C-32.77618408 22.20748779 -32.80236816 21.47747559 -32.8293457 20.7253418 C-32.84918204 14.31085762 -30.82602713 9.27784017 -26.62890625 4.4140625 C-26.07074219 3.96804687 -25.51257813 3.52203125 -24.9375 3.0625 C-24.38191406 2.60101563 -23.82632812 2.13953125 -23.25390625 1.6640625 C-16.48277267 -2.75617855 -7.39669183 -3.32067283 0 0 Z " fill="#F7DB9C" transform="translate(54.375,245.5625)"/>
<path d="M0 0 C12.54337048 2.9163975 24.85955465 4.43635801 37.73046875 4.8203125 C38.71329834 4.8522168 39.69612793 4.88412109 40.70874023 4.91699219 C42.59452252 4.9706687 44.48093834 5.00640068 46.36743164 5.02050781 C53.3268914 5.19451054 58.69441629 6.70230146 63.8984375 11.484375 C68.73486593 18.24978356 70.66513035 24.13516067 69.40625 32.4609375 C67.76238817 39.15725702 63.52733049 43.82936019 57.875 47.625 C53.8708647 49.5527687 50.57805567 49.90464382 46.15234375 49.9609375 C45.17813728 49.97343788 45.17813728 49.97343788 44.18424988 49.9861908 C42.06009711 50.00570989 39.93672873 50.00561525 37.8125 50 C37.08246765 49.99978851 36.3524353 49.99957703 35.60028076 49.99935913 C17.08880159 49.94613188 -1.03679175 47.66450924 -19 43.125 C-19.74878418 42.93591064 -20.49756836 42.74682129 -21.26904297 42.55200195 C-28.80992796 40.45575175 -33.59459475 36.79138492 -38.125 30.625 C-40.94225165 24.81256501 -40.86040809 18.95257374 -40.125 12.625 C-37.96364739 6.66198252 -33.29113007 2.16294216 -28.125 -1.375 C-18.91093597 -4.44635468 -9.16192851 -2.13755478 0 0 Z " fill="#F7A086" transform="translate(216.125,440.375)"/>
<path d="M0 0 C5.96424064 2.07121811 10.53802166 5.95668368 15.45214844 9.79296875 C16.84868245 10.88200095 18.25576425 11.95747421 19.6640625 13.03125 C52.63092149 38.92666794 76.08204946 76.74682174 86.375 117.25 C86.6136377 118.18263672 86.85227539 119.11527344 87.09814453 120.07617188 C90.59011267 134.62982649 91.41431599 149.10160505 91.375 164 C91.3737915 164.85338959 91.37258301 165.70677917 91.37133789 166.58602905 C91.18782815 214.54305428 73.13894346 261.11995619 40 296 C38.82666277 297.36931218 37.65946034 298.74391787 36.5 300.125 C20.17798427 318.80042265 -3.53159223 333.93177546 -26.43359375 343.25 C-27.37501221 343.63534912 -28.31643066 344.02069824 -29.28637695 344.41772461 C-31.13478521 345.16316078 -32.9912426 345.88903482 -34.85620117 346.59204102 C-40.56699333 348.87905038 -44.44213856 351.21998963 -47 357 C-47.63185211 360.13058355 -47.63185211 360.13058355 -47.375 363.1875 C-47.34148437 364.19167969 -47.30796875 365.19585937 -47.2734375 366.23046875 C-47.03977365 368.59714978 -46.66315715 370.72243569 -46 373 C-50.20935149 372.75239109 -52.47627827 372.41897739 -55.8125 369.75 C-59.63306661 364.94700198 -60.64791679 361.1552095 -60 355 C-56.65885538 346.81419567 -47.40799251 344.46034175 -39.80859375 341.1953125 C-22.68431226 333.81272724 -7.55687317 324.6641373 7 313 C7.61504395 312.50741699 8.23008789 312.01483398 8.86376953 311.50732422 C46.38302893 281.1250439 72.554403 233.42774917 77.98681641 185.37109375 C83.35647601 130.61849785 70.15311318 78.58198543 35.5625 35.3125 C25.28622536 23.11285845 14.44347297 11.31171535 1.36328125 2.05859375 C0.91339844 1.70925781 0.46351563 1.35992187 0 1 C0 0.67 0 0.34 0 0 Z " fill="#C7F1FC" transform="translate(374,96)"/>
<path d="M0 0 C1.04148193 -0.0103125 2.08296387 -0.020625 3.15600586 -0.03125 C23.44144205 0.20041808 42.60357674 9.7939702 57.25 23.4375 C73.55799634 40.87505453 82.35813872 61.87217515 81.6015625 85.90625 C80.34598882 107.04324569 69.84094453 128.28098012 54.25 142.4375 C34.9009696 158.68396518 12.57312456 163.90391556 -12.21484375 162.19921875 C-33.15643046 159.63652767 -52.47040306 147.11960676 -65.4375 130.8125 C-71.96235616 121.77008872 -76.86248671 111.21483834 -79.75 100.4375 C-79.95367187 99.73367188 -80.15734375 99.02984375 -80.3671875 98.3046875 C-84.81957755 80.31215236 -81.41544171 60.60328201 -72.75 44.4375 C-72.25886719 43.47585937 -71.76773438 42.51421875 -71.26171875 41.5234375 C-60.54498996 21.7269027 -42.01505355 8.74148329 -20.8125 1.9375 C-13.89734679 0.28051441 -7.09593667 0.05833846 0 0 Z M-56.9375 34.75 C-64.54564013 43.61847849 -68.84531206 53.19354666 -71.75 64.4375 C-71.9243457 65.04174805 -72.09869141 65.64599609 -72.27832031 66.26855469 C-76.35123121 84.9971988 -72.01098123 104.17233846 -62.69140625 120.4765625 C-59.5237524 125.30771264 -55.84656612 129.38162825 -51.75 133.4375 C-51.01265625 134.20835937 -50.2753125 134.97921875 -49.515625 135.7734375 C-36.40846696 148.66067678 -18.40177383 154.70831536 -0.32543945 154.68408203 C20.3401784 154.39849943 37.57200838 146.81108842 52.5 132.625 C66.04893389 118.58220639 72.83012404 100.83863862 72.625 81.5 C72.64240234 79.86514648 72.64240234 79.86514648 72.66015625 78.19726562 C72.58875171 58.16829281 64.03687853 42.55509257 50.5 28.3125 C35.83451063 14.04456908 17.65696414 8.0471075 -2.4609375 8.20483398 C-24.83773027 8.70951704 -41.8489857 18.7021004 -56.9375 34.75 Z " fill="#663733" transform="translate(232.75,174.5625)"/>
<path d="M0 0 C-0.38671875 0.44730469 -0.7734375 0.89460937 -1.171875 1.35546875 C-8.38161787 8.80961946 -8.38161787 8.80961946 -11.25 18.25 C-11.28867188 19.37148437 -11.28867188 19.37148437 -11.328125 20.515625 C-10.43396474 27.28569556 -6.00345212 31.38225712 -1.3125 35.875 C-0.70599609 36.46796875 -0.09949219 37.0609375 0.52539062 37.671875 C2.01014785 39.12155922 3.50414991 40.56176468 5 42 C4.60675537 42.80836304 4.60675537 42.80836304 4.20556641 43.63305664 C3.00623824 46.10677045 1.81557808 48.58456373 0.625 51.0625 C0.00625 52.33383789 0.00625 52.33383789 -0.625 53.63085938 C-3.92014648 60.51346371 -5.98598997 67.04419827 -7.0625 74.625 C-7.94276171 80.75045754 -7.94276171 80.75045754 -8.54296875 83.3671875 C-10.31162734 93.55587032 -9.40432523 104.30073066 -6.70703125 114.203125 C-6.08133203 116.67826668 -5.84049467 118.77864936 -5.75 121.3125 C-4.96268642 130.52064574 0.8885487 139.89060373 5 148 C4.58637207 148.4031543 4.17274414 148.80630859 3.74658203 149.22167969 C1.86743654 151.05913675 -0.00381036 152.9044431 -1.875 154.75 C-2.52597656 155.38421875 -3.17695313 156.0184375 -3.84765625 156.671875 C-4.47285156 157.290625 -5.09804687 157.909375 -5.7421875 158.546875 C-6.60626221 159.39523926 -6.60626221 159.39523926 -7.48779297 160.26074219 C-10.67944873 163.93161007 -11.41018203 167.03113263 -11.23828125 171.92578125 C-10.34447554 179.70628668 -5.52658506 183.94599703 0 189 C-2 191 -2 191 -5.125 191.0625 C-10.26094831 190.16557763 -13.42087881 186.54289527 -17 183 C-17.59554687 182.44183594 -18.19109375 181.88367188 -18.8046875 181.30859375 C-22.39786891 177.87873877 -23.75889482 175.75662349 -24.4375 170.8125 C-23.45930883 162.28826267 -15.94297639 156.85837319 -9.87890625 151.39453125 C-7.7651544 149.20146561 -7.7651544 149.20146561 -7.9765625 146.66796875 C-9.33136805 143.13616651 -11.03569729 139.83160527 -12.8125 136.5 C-16.05670266 130.26114873 -18.40246595 124.28790862 -20.2109375 117.4765625 C-20.83678517 114.85716419 -20.83678517 114.85716419 -23 113 C-25.32664389 112.71127552 -25.32664389 112.71127552 -28.015625 112.76171875 C-29.52189453 112.73754883 -29.52189453 112.73754883 -31.05859375 112.71289062 C-33.1705125 112.69608833 -35.28255585 112.6907067 -37.39453125 112.69726562 C-46.05763751 112.52577374 -46.05763751 112.52577374 -49.671875 109.64453125 C-53.71932125 105.0470126 -53.27829203 100.51195754 -53.375 94.6875 C-53.41238281 93.84509766 -53.44976562 93.00269531 -53.48828125 92.13476562 C-53.54940519 87.79157014 -53.40348139 84.90435909 -50.6015625 81.45703125 C-47.10085831 78.15081063 -45.53156708 77.87319015 -40.84375 77.75390625 C-39.82152344 77.72103516 -38.79929687 77.68816406 -37.74609375 77.65429688 C-35.58213811 77.59310198 -33.41806858 77.53580975 -31.25390625 77.48242188 C-30.23167969 77.44826172 -29.20945313 77.41410156 -28.15625 77.37890625 C-27.21587891 77.3538501 -26.27550781 77.32879395 -25.30664062 77.30297852 C-22.80678537 77.21278329 -22.80678537 77.21278329 -21 75 C-20.43097687 72.99220335 -19.92002198 70.96782196 -19.4375 68.9375 C-17.54678452 61.9054928 -14.57462123 55.96271132 -10.90991211 49.68725586 C-10.5206958 49.0041333 -10.13147949 48.32101074 -9.73046875 47.6171875 C-9.37364014 47.01503418 -9.01681152 46.41288086 -8.64916992 45.79248047 C-7.79714176 43.43987017 -8.08619391 42.30807586 -9 40 C-11.41785926 37.40892097 -13.92554196 35.0068007 -16.51953125 32.59765625 C-20.84478136 28.46275944 -23.50924544 24.65007464 -24.625 18.625 C-23.24391853 10.61472745 -15.12094089 4.85453932 -9 0 C-5.93109813 -1.53445094 -3.29905734 -0.54984289 0 0 Z " fill="#85DAFD" transform="translate(161,161)"/>
<path d="M0 0 C11.26537476 8.45662229 21.24826043 21.12866738 23.75390625 35.3359375 C25.31111471 52.19333702 23.4920107 68.49610402 12.55078125 82.17578125 C2.52858024 93.98238288 -10.55775758 101.60002826 -26 104 C-41.42273946 105.2015161 -56.0913875 101.40362607 -68.13671875 91.484375 C-79.45449615 81.73442073 -86.7992569 70.01950449 -89 55 C-89.93233556 37.46491966 -86.91757889 22.1592131 -74.8125 8.6875 C-54.28186655 -13.09270277 -24.97501528 -15.11953501 0 0 Z M-70 15 C-78.90726079 26.26144806 -82.33455111 38.75936318 -81 53 C-78.89502591 66.2613368 -73.22922706 77.76648369 -62.390625 85.9765625 C-53.0358703 92.18663977 -44.4880828 95.74571502 -33.1875 95.5625 C-32.22481201 95.55154297 -31.26212402 95.54058594 -30.27026367 95.52929688 C-17.51129046 95.14301899 -7.57858305 90.52110748 2 82 C12.38327338 70.93997696 16.74311608 57.62497498 16.34375 42.515625 C14.97229796 28.48941091 8.32189027 17.0138346 -2.30859375 7.94140625 C-6.57234934 4.86580897 -11.11020387 2.87029068 -16 1 C-16.87914062 0.64035156 -17.75828125 0.28070313 -18.6640625 -0.08984375 C-36.68890998 -7.11290305 -57.48573542 1.61637152 -70 15 Z " fill="#683630" transform="translate(265,209)"/>
<path d="M0 0 C5.70266329 5.03777878 10.66983195 10.94626141 15.4921875 16.81640625 C24.14427382 27.26906189 35.68570128 35.44708126 46.625 43.375 C51.37551906 46.90743725 55.01441748 51.19105701 56.51953125 57.0078125 C57.48043074 63.9519128 56.48608052 70.10270319 52.671875 76.08203125 C48.22752929 81.63746339 43.67220169 83.94185329 36.625 84.875 C21.64965499 85.80339066 9.52544299 73.27694992 -1 64 C-2.26457031 62.90365234 -2.26457031 62.90365234 -3.5546875 61.78515625 C-35.53896414 33.62850615 -35.53896414 33.62850615 -36.95703125 19.20703125 C-37.09018558 12.36774053 -35.08395754 7.01243076 -30.77734375 1.7265625 C-22.31159749 -6.49730529 -9.31445388 -7.14830181 0 0 Z M-27 11 C-28.13557238 13.27114476 -28.23084318 14.72293619 -28.3125 17.25 C-28.34988281 17.99765625 -28.38726562 18.7453125 -28.42578125 19.515625 C-27.41644099 25.40498652 -22.32002451 30.19737218 -18.5 34.625 C-17.97736572 35.23110107 -17.45473145 35.83720215 -16.91625977 36.46166992 C4.10213401 61.23079814 4.10213401 61.23079814 31.015625 76.3359375 C36.89827727 76.43878107 40.23967325 75.52264179 45 72 C48.20388262 68.38271318 48.37161495 65.01781611 48.49609375 60.37890625 C47.08773231 53.62542504 41.91395876 50.1005082 36.625 46.375 C22.63140553 36.19725737 9.86176349 25.19055657 -0.82421875 11.515625 C-3.83579363 8.03366051 -7.20122612 4.51097946 -11.8828125 3.65625 C-18.92158089 3.16574349 -22.41337018 5.82834087 -27 11 Z " fill="#64322D" transform="translate(104,370)"/>
<path d="M0 0 C5.67342334 4.28817096 8.48265287 9.5385403 9.59765625 16.5234375 C9.97805751 24.11195504 7.99679457 29.16888282 4.125 35.5625 C-4.57049792 50.28366279 -11.43056861 65.0981514 -16.44165039 81.48266602 C-18.88255096 89.28197105 -22.1070069 94.68954497 -28.875 99.5625 C-34.77296985 102.37744016 -41.38246831 102.74357385 -47.56640625 100.65234375 C-54.08410074 97.63147492 -57.99894772 94.40394038 -61.1875 87.875 C-63.20457184 78.15638114 -61.24311462 69.96234498 -58 60.75 C-57.59579834 59.5758252 -57.19159668 58.40165039 -56.77514648 57.19189453 C-38.82372951 6.21635173 -38.82372951 6.21635173 -20.875 -2.4375 C-13.69141618 -4.2686096 -6.44544325 -3.81552995 0 0 Z M-25.875 12.5625 C-29.66165523 18.30864966 -32.76370342 24.43404593 -35.875 30.5625 C-36.30103516 31.38621094 -36.72707031 32.20992187 -37.16601562 33.05859375 C-42.38446096 43.21041001 -46.82932288 53.5220384 -50.5625 64.3125 C-50.91393066 65.30008301 -51.26536133 66.28766602 -51.62744141 67.30517578 C-53.98715007 74.45001826 -54.67812662 80.41530877 -51.625 87.4375 C-48.94001595 90.69783777 -46.80611612 92.29769812 -42.5390625 92.8828125 C-38.29818856 93.07384286 -35.41444162 92.80225183 -31.5 91.0625 C-26.42642084 86.23051985 -24.87874056 80.77546456 -23.125 74.1875 C-18.43648403 57.12348258 -9.60604842 40.89224892 -0.609375 25.734375 C1.47208887 21.92773387 1.74743448 19.84173706 1.125 15.5625 C-1.45077324 10.94387213 -3.7942079 7.25609737 -8.875 5.5625 C-16.68879919 4.20625872 -21.05673417 6.40232462 -25.875 12.5625 Z " fill="#64332E" transform="translate(90.875,121.4375)"/>
<path d="M0 0 C5.29314438 3.09869494 9.18976248 7.84353466 11.625 13.4375 C12.0480957 15.91333008 12.0480957 15.91333008 12.30078125 18.70703125 C12.40366455 19.74915771 12.50654785 20.79128418 12.61254883 21.86499023 C12.71978271 22.98204346 12.8270166 24.09909668 12.9375 25.25 C14.76282183 42.38131904 18.02947052 58.96096275 23.74536133 75.23803711 C26.05600374 81.9816504 26.44406675 87.79334055 23.65625 94.453125 C20.49322539 100.53955114 16.38701379 104.29842934 9.98046875 106.77734375 C3.53117663 108.5848568 -2.15565585 107.91833721 -8.11181641 104.84936523 C-15.80251786 100.05159539 -18.93835325 92.7258867 -21.5 84.375 C-21.83273926 83.33150391 -22.16547852 82.28800781 -22.50830078 81.21289062 C-28.37683528 62.29020934 -32.33243216 42.77910159 -32.75 22.9375 C-32.77618408 22.20748779 -32.80236816 21.47747559 -32.8293457 20.7253418 C-32.84918204 14.31085762 -30.82602713 9.27784017 -26.62890625 4.4140625 C-26.07074219 3.96804687 -25.51257813 3.52203125 -24.9375 3.0625 C-24.38191406 2.60101563 -23.82632812 2.13953125 -23.25390625 1.6640625 C-16.48277267 -2.75617855 -7.39669183 -3.32067283 0 0 Z M-22.375 12.4375 C-27.19792234 22.37511905 -23.94427755 34.98596766 -22.125 45.375 C-21.92003906 46.62990234 -21.71507812 47.88480469 -21.50390625 49.17773438 C-20.03634314 57.80077941 -17.91740364 66.07372282 -15.375 74.4375 C-14.88910543 76.13535444 -14.40340295 77.83326388 -13.91796875 79.53125 C-13.46866363 81.00077217 -13.01692741 82.46955373 -12.5625 83.9375 C-12.35302734 84.68257813 -12.14355469 85.42765625 -11.92773438 86.1953125 C-10.14776457 91.8393624 -7.45759528 95.32165729 -2.375 98.4375 C2.4707968 99.76102159 6.57982539 98.93158254 11.0625 96.8125 C14.86674324 93.28661602 16.49565676 90.39411047 16.83984375 85.1875 C16.60738702 81.1300734 15.69777811 78.06257958 14.3125 74.25 C13.84710531 72.92037098 13.38489258 71.58962417 12.92578125 70.2578125 C12.70100098 69.6071582 12.4762207 68.95650391 12.24462891 68.28613281 C8.26027512 56.3990064 6.19229374 43.51924911 5.1328125 31.046875 C5.05619385 30.15291016 4.9795752 29.25894531 4.90063477 28.33789062 C4.76199723 26.61389393 4.63922461 24.88852296 4.53491211 23.16210938 C4.05016734 16.95838747 2.37868619 12.85740604 -2.4375 8.625 C-9.98050167 4.00186995 -16.69669703 6.41980421 -22.375 12.4375 Z " fill="#64332E" transform="translate(54.375,245.5625)"/>
<path d="M0 0 C12.54337048 2.9163975 24.85955465 4.43635801 37.73046875 4.8203125 C38.71329834 4.8522168 39.69612793 4.88412109 40.70874023 4.91699219 C42.59452252 4.9706687 44.48093834 5.00640068 46.36743164 5.02050781 C53.3268914 5.19451054 58.69441629 6.70230146 63.8984375 11.484375 C68.73486593 18.24978356 70.66513035 24.13516067 69.40625 32.4609375 C67.76238817 39.15725702 63.52733049 43.82936019 57.875 47.625 C53.8708647 49.5527687 50.57805567 49.90464382 46.15234375 49.9609375 C45.17813728 49.97343788 45.17813728 49.97343788 44.18424988 49.9861908 C42.06009711 50.00570989 39.93672873 50.00561525 37.8125 50 C37.08246765 49.99978851 36.3524353 49.99957703 35.60028076 49.99935913 C17.08880159 49.94613188 -1.03679175 47.66450924 -19 43.125 C-19.74878418 42.93591064 -20.49756836 42.74682129 -21.26904297 42.55200195 C-28.80992796 40.45575175 -33.59459475 36.79138492 -38.125 30.625 C-40.94225165 24.81256501 -40.86040809 18.95257374 -40.125 12.625 C-37.96364739 6.66198252 -33.29113007 2.16294216 -28.125 -1.375 C-18.91093597 -4.44635468 -9.16192851 -2.13755478 0 0 Z M-28.125 9.625 C-31.5174947 13.55315176 -32.78848706 16.57129521 -32.515625 21.66796875 C-31.70982273 25.70503812 -29.39782194 28.50525686 -26.37109375 31.16796875 C-17.81414691 36.71882296 -5.18323619 37.75667747 4.79296875 39.30029297 C6.71895665 39.60066397 8.64097629 39.92618875 10.5625 40.25390625 C19.37507856 41.58886254 28.09627453 41.85997853 37 41.9375 C38.17481934 41.95514404 39.34963867 41.97278809 40.56005859 41.9909668 C48.65362898 42.02636081 48.65362898 42.02636081 55.875 38.625 C59.30290374 34.91915812 60.74853376 32.33229425 61.125 27.25 C60.76799462 22.07342195 59.18228187 19.80155368 55.375 16.375 C51.58959515 13.72521661 48.70358713 13.49141209 44.1953125 13.4140625 C42.47586426 13.37478638 42.47586426 13.37478638 40.72167969 13.3347168 C39.49352539 13.30676025 38.26537109 13.27880371 37 13.25 C20.32064979 12.75158328 4.38910196 10.94906075 -11.6796875 6.39453125 C-18.4892549 4.87357345 -22.70788475 5.05054713 -28.125 9.625 Z " fill="#64322E" transform="translate(216.125,440.375)"/>
<path d="M0 0 C-2.66524198 2.96345087 -5.81065057 4.93893974 -9.125 7.125 C-26.24242094 18.77323106 -36.36147496 35.5452575 -40.55859375 55.6796875 C-43.57195484 78.34656297 -39.11533047 100.11413196 -25.125 118.4375 C-19.65445829 124.80907211 -13.58074538 130.58349838 -6.375 134.9375 C-5.26125 135.618125 -4.1475 136.29875 -3 137 C-3 137.66 -3 138.32 -3 139 C-15.34273884 137.87080407 -25.54961052 129.55380334 -34 121 C-35.04414063 119.98873047 -35.04414063 119.98873047 -36.109375 118.95703125 C-49.20029765 105.43481851 -54.29198559 88.28906929 -54.4375 69.875 C-54.4478125 68.79049561 -54.458125 67.70599121 -54.46875 66.58862305 C-54.25097514 46.63348908 -45.74715589 31.07579909 -32.25 16.875 C-24.32364017 9.14050364 -11.65455488 -0.68924787 0 0 Z " fill="#FCEBCB" transform="translate(214,186)"/>
<path d="M0 0 C5.89644393 2.61758025 10.46378032 6.62336858 14 12 C15.71468511 18.38583479 15.33800136 25.46799742 12.2578125 31.296875 C8.93672388 35.27298802 6.540273 36.85778802 1.3112793 37.34057617 C-0.10116329 37.34010574 -1.513667 37.32342551 -2.92578125 37.29296875 C-3.67337204 37.28872391 -4.42096283 37.28447906 -5.19120789 37.28010559 C-7.56534732 37.26339056 -9.93861967 37.22575347 -12.3125 37.1875 C-13.92772206 37.17244381 -15.54295751 37.15875703 -17.15820312 37.14648438 C-21.10579988 37.1135108 -25.05275322 37.06177969 -29 37 C-28.51917969 35.8759375 -28.03835937 34.751875 -27.54296875 33.59375 C-25.778154 28.88757733 -25.45467846 24.48843287 -25.3125 19.5 C-25.27833984 18.67757813 -25.24417969 17.85515625 -25.20898438 17.0078125 C-25.1275012 15.0056545 -25.06205425 13.00285432 -25 11 C-24.41734375 10.76925781 -23.8346875 10.53851563 -23.234375 10.30078125 C-18.33331662 8.35114639 -13.44202956 6.37792504 -8.5625 4.375 C-7.57378906 3.97023438 -6.58507812 3.56546875 -5.56640625 3.1484375 C-2.84139413 2.01448433 -2.84139413 2.01448433 0 0 Z " fill="#52B4D4" transform="translate(283,344)"/>
<path d="M0 0 C4.73219762 -0.09927153 9.46378213 -0.17165633 14.19677734 -0.21972656 C15.80495774 -0.23977627 17.41306583 -0.26702364 19.02099609 -0.30175781 C21.3397002 -0.35057264 23.65743625 -0.37303428 25.9765625 -0.390625 C27.04567368 -0.42159271 27.04567368 -0.42159271 28.13638306 -0.45318604 C33.24163899 -0.45545346 36.06401497 0.80861107 40 4 C43.9594531 8.96421755 44.15348694 14.70525523 43.90234375 20.81640625 C42.91210859 28.18477149 36.51333921 32.66809062 31 37 C30.32710938 36.73058594 29.65421875 36.46117187 28.9609375 36.18359375 C26.80017945 35.31986065 24.63860857 34.45816017 22.4765625 33.59765625 C21.19270191 33.08595362 19.90884787 32.57423454 18.625 32.0625 C17.99078125 31.81048828 17.3565625 31.55847656 16.703125 31.29882812 C12.43913067 29.59758141 8.21319207 27.8235392 4 26 C3.96261719 24.70964844 3.92523438 23.41929687 3.88671875 22.08984375 C3.82102298 20.37236851 3.7545769 18.65492185 3.6875 16.9375 C3.66494141 16.08994141 3.64238281 15.24238281 3.61914062 14.36914062 C3.58369141 13.53447266 3.54824219 12.69980469 3.51171875 11.83984375 C3.48553467 11.08050537 3.45935059 10.32116699 3.43237305 9.53881836 C2.83844425 6.05137313 1.47537199 3.21352851 0 0 Z " fill="#52B5D5" transform="translate(254,131)"/>
<path d="M0 0 C0 3 0 3 -1.47070312 4.89648438 C-7.38074549 13.02562311 -3.09006729 31.97771742 -1.66162109 41.27709961 C1.1780361 57.73762265 4.92520427 77.76664392 14 92 C12.65015829 92.16528674 11.29409299 92.27987996 9.9375 92.375 C8.80634766 92.47941406 8.80634766 92.47941406 7.65234375 92.5859375 C3.41060604 91.64888204 0.78408179 89.27044486 -2 86 C-3.64240774 83.0087331 -4.68035711 79.94093738 -5.6875 76.6875 C-5.97729736 75.8008667 -6.26709473 74.9142334 -6.56567383 74.00073242 C-21.72714605 26.57177522 -21.72714605 26.57177522 -15.9375 7.5 C-11.48130695 1.75007349 -7.47787274 -0.76304824 0 0 Z " fill="#FCEACB" transform="translate(47,252)"/>
<path d="M0 0 C-0.6290625 0.47308594 -1.258125 0.94617188 -1.90625 1.43359375 C-14.00881721 10.78392053 -23.56675724 21.46289212 -25.75390625 37.15625 C-27.02204978 51.81035298 -25.12309338 65.62008495 -16.02734375 77.59765625 C-11.50702252 82.88332288 -6.70554168 86.94846999 -0.87109375 90.72265625 C0.05509766 91.35494141 0.05509766 91.35494141 1 92 C1 92.33 1 92.66 1 93 C-9.82954371 92.64493299 -18.12515885 87.59460889 -25.9296875 80.265625 C-36.11755102 69.11664228 -39.42925659 56.52937648 -39.2734375 41.7265625 C-38.32946556 28.86157352 -32.44793583 17.93477098 -23.1875 9.125 C-17.11901207 3.95520418 -8.32496039 -2.67588012 0 0 Z " fill="#FCC4B7" transform="translate(223,210)"/>
<path d="M0 0 C-1.25706884 3.50931718 -2.8809728 6.55442807 -4.86767578 9.70410156 C-16.8688369 28.73828466 -32.18396762 55.84351978 -30 79 C-28.74505538 82.52248006 -28.74505538 82.52248006 -27 85 C-26.505 85.99 -26.505 85.99 -26 87 C-30.16216359 87.24483315 -33.84931337 87.40913302 -37.8125 86 C-40.92964234 83.15004128 -43.0143922 80.1344327 -44 76 C-43.90418667 69.6588998 -42.30685056 63.72713021 -40.3125 57.75 C-40.01923828 56.87102051 -39.72597656 55.99204102 -39.42382812 55.08642578 C-36.5019058 46.75951896 -32.82867001 38.81302348 -29 30.875 C-28.7073526 30.26474976 -28.4147052 29.65449951 -28.1131897 29.02575684 C-13.43512267 -1.41422344 -13.43512267 -1.41422344 0 0 Z " fill="#FCEACB" transform="translate(81,127)"/>
<path d="M0 0 C4.07894737 1.42763158 4.07894737 1.42763158 5.5 3.875 C5.31104762 11.32389902 2.37099785 16.91369218 -0.99609375 23.453125 C-1.54483658 24.54212097 -2.09357941 25.63111694 -2.65895081 26.75311279 C-4.40723308 30.21623062 -6.17203739 33.67061426 -7.9375 37.125 C-9.1215486 39.46298193 -10.30450326 41.80151821 -11.48632812 44.140625 C-14.08651019 49.2821338 -16.69711518 54.41818927 -19.31712341 59.54962158 C-20.38736219 61.65356901 -21.44732438 63.76222094 -22.5 65.875 C-23.95792884 65.92899736 -25.41642712 65.96779177 -26.875 66 C-27.68710938 66.02320312 -28.49921875 66.04640625 -29.3359375 66.0703125 C-31.5 65.875 -31.5 65.875 -33.5 63.875 C-33.2007959 58.86367713 -31.24199188 54.75783542 -29.03515625 50.3359375 C-28.6859462 49.62079987 -28.33673615 48.90566223 -27.97694397 48.16885376 C-26.84645204 45.85871875 -25.70489082 43.55427086 -24.5625 41.25 C-23.78380244 39.66693218 -23.00564639 38.08359788 -22.22802734 36.5 C-20.69425497 33.38017304 -19.15568354 30.26278821 -17.61279297 27.14746094 C-15.81350017 23.51344708 -14.03057999 19.87169809 -12.25390625 16.2265625 C-11.37826982 14.44238149 -10.5020355 12.65849369 -9.625 10.875 C-9.23965088 10.08270996 -8.85430176 9.29041992 -8.45727539 8.47412109 C-4.14215366 -0.20710768 -4.14215366 -0.20710768 0 0 Z " fill="#C7F0FB" transform="translate(144.5,36.125)"/>
<path d="M0 0 C-0.38671875 0.44730469 -0.7734375 0.89460937 -1.171875 1.35546875 C-8.38161787 8.80961946 -8.38161787 8.80961946 -11.25 18.25 C-11.28867188 19.37148437 -11.28867188 19.37148437 -11.328125 20.515625 C-10.43396474 27.28569556 -6.00345212 31.38225712 -1.3125 35.875 C-0.70599609 36.46796875 -0.09949219 37.0609375 0.52539062 37.671875 C2.01014785 39.12155922 3.50414991 40.56176468 5 42 C4.74831055 42.51272461 4.49662109 43.02544922 4.23730469 43.55371094 C-0.490756 53.23085072 -4.91179152 62.66121507 -8 73 C-11.63 73 -15.26 73 -19 73 C-18.59290885 65.76686254 -16.78462407 60.59912685 -13.5 54.1875 C-12.6739667 52.5367121 -11.85093079 50.88442011 -11.03125 49.23046875 C-10.66580078 48.51270264 -10.30035156 47.79493652 -9.92382812 47.05541992 C-8.98841441 44.97422329 -8.24580212 43.27424661 -8 41 C-9.00414417 39.35493486 -9.00414417 39.35493486 -10.640625 37.9765625 C-11.21683594 37.43 -11.79304687 36.8834375 -12.38671875 36.3203125 C-13.00160156 35.76085937 -13.61648437 35.20140625 -14.25 34.625 C-19.46700073 29.82311546 -23.28199985 25.87720083 -24.625 18.625 C-23.24391853 10.61472745 -15.12094089 4.85453932 -9 0 C-5.93109813 -1.53445094 -3.29905734 -0.54984289 0 0 Z " fill="#C7F0FB" transform="translate(161,161)"/>
<path d="M0 0 C3.63 0 7.26 0 11 0 C11.35191406 1.06476563 11.70382813 2.12953125 12.06640625 3.2265625 C15.34388461 12.93207671 19.16023395 21.96481546 24 31 C23.58637207 31.4031543 23.17274414 31.80630859 22.74658203 32.22167969 C20.86743654 34.05913675 18.99618964 35.9044431 17.125 37.75 C16.47402344 38.38421875 15.82304687 39.0184375 15.15234375 39.671875 C14.21455078 40.6 14.21455078 40.6 13.2578125 41.546875 C12.6817627 42.11245117 12.10571289 42.67802734 11.51220703 43.26074219 C8.32055127 46.93161007 7.58981797 50.03113263 7.76171875 54.92578125 C8.65552446 62.70628668 13.47341494 66.94599703 19 72 C17 74 17 74 13.875 74.0625 C8.73905169 73.16557763 5.57912119 69.54289527 2 66 C1.40445313 65.44183594 0.80890625 64.88367188 0.1953125 64.30859375 C-3.39786891 60.87873877 -4.75889482 58.75662349 -5.4375 53.8125 C-4.45930883 45.28826267 3.05702361 39.85837319 9.12109375 34.39453125 C11.2302623 32.20501757 11.2302623 32.20501757 11.03125 29.6953125 C9.62161414 26.01103696 7.89381814 22.55334891 6.0625 19.0625 C2.7207608 12.65999072 0 7.40146183 0 0 Z " fill="#C7F0FC" transform="translate(142,278)"/>
<path d="M0 0 C-1.81280788 4.66150598 -1.81280788 4.66150598 -3.0390625 6.87890625 C-4.83636637 10.84612576 -4.69608966 14.75448016 -4 19 C-1.15887733 25.36281844 4.02542483 30.46151427 8.70703125 35.51953125 C10.87790861 37.86792499 12.9716334 40.26800996 15.0625 42.6875 C18.76215123 46.84506484 22.72806988 50.4437473 27 54 C28.41345703 55.21042969 28.41345703 55.21042969 29.85546875 56.4453125 C35.16232024 60.96580668 40.48541147 65.20386799 46.453125 68.84375 C47.21882813 69.41609375 47.21882813 69.41609375 48 70 C48 70.66 48 71.32 48 72 C41.64536524 72.49309188 38.24270479 71.56885563 33.1875 67.5625 C32.58566895 67.1080249 31.98383789 66.6535498 31.36376953 66.18530273 C29.55853892 64.81094726 27.77735908 63.41013613 26 62 C25.03449219 61.2471875 24.06898437 60.494375 23.07421875 59.71875 C16.08733124 54.13732901 9.5043247 48.12977791 3 42 C2.2678125 41.31035156 1.535625 40.62070312 0.78125 39.91015625 C-17.2749363 22.39135644 -17.2749363 22.39135644 -17.625 13.6875 C-17.48974295 8.6407212 -15.12677826 6.05739968 -11.7265625 2.53125 C-8.0131013 -0.7621364 -4.77591447 -0.07703088 0 0 Z " fill="#FBC4B7" transform="translate(93,374)"/>
<path d="M0 0 C1.22589844 0.01353516 1.22589844 0.01353516 2.4765625 0.02734375 C3.41628906 0.04474609 3.41628906 0.04474609 4.375 0.0625 C3.88773438 0.825625 3.40046875 1.58875 2.8984375 2.375 C0.83947088 7.3587551 0.93630847 11.72656534 1 17.0625 C0.98839844 18.03445313 0.97679688 19.00640625 0.96484375 20.0078125 C0.9871198 25.45801821 1.35465106 29.33221806 4.375 34.0625 C-0.39261753 34.53926175 -4.25732515 34.90074 -8.125 31.75 C-12.37726078 27.17881967 -11.90173091 22.66847909 -12 16.75 C-12.03738281 15.90759766 -12.07476562 15.06519531 -12.11328125 14.19726562 C-12.17440519 9.85407014 -12.02848139 6.96685909 -9.2265625 3.51953125 C-5.85989298 0.33989892 -4.48708874 -0.06410127 0 0 Z " fill="#C8F2FD" transform="translate(119.625,238.9375)"/>
<path d="M0 0 C1.22589844 0.01353516 1.22589844 0.01353516 2.4765625 0.02734375 C3.41628906 0.04474609 3.41628906 0.04474609 4.375 0.0625 C3.89417969 0.99191406 3.41335937 1.92132813 2.91796875 2.87890625 C0.80905769 7.79969873 0.81398603 12.71288399 0.6875 18 C0.65333984 18.97001953 0.61917969 19.94003906 0.58398438 20.93945312 C0.5021237 23.3134128 0.43687096 25.68793527 0.375 28.0625 C-3.585 28.0625 -7.545 28.0625 -11.625 28.0625 C-11.76041522 24.68614714 -11.85931111 21.31526024 -11.9375 17.9375 C-12.0003418 16.51050781 -12.0003418 16.51050781 -12.06445312 15.0546875 C-12.20259974 7.09744261 -12.20259974 7.09744261 -9.23046875 3.4453125 C-5.84943801 0.35321542 -4.44798488 -0.06354264 0 0 Z " fill="#C8F1FC" transform="translate(226.625,131.9375)"/>
<path d="M0 0 C3.96 0 7.92 0 12 0 C12.03738281 1.43472656 12.07476562 2.86945313 12.11328125 4.34765625 C12.17896997 6.25262904 12.24541629 8.15757582 12.3125 10.0625 C12.33505859 11.00544922 12.35761719 11.94839844 12.38085938 12.91992188 C12.60100528 18.66372859 13.3520244 22.88152706 16 28 C8.0470297 28.62376238 8.0470297 28.62376238 4.0625 26.25 C0.80047293 22.69142502 -0.25710347 20.05407046 -0.1953125 15.234375 C-0.18886719 14.34492188 -0.18242187 13.45546875 -0.17578125 12.5390625 C-0.15902344 11.61867188 -0.14226562 10.69828125 -0.125 9.75 C-0.11597656 8.81414062 -0.10695312 7.87828125 -0.09765625 6.9140625 C-0.07413791 4.60926511 -0.03826826 2.30459967 0 0 Z " fill="#C8F2FC" transform="translate(215,352)"/>
<path d="M0 0 C-1.85123967 4.76033058 -1.85123967 4.76033058 -3.125 6.8125 C-5.051947 11.6298675 -4.35872935 15.94174841 -2.75 20.6875 C-1.09834539 23.81384623 0.67121125 26.34999901 3 29 C-2.72861661 29.58755042 -7.13789927 27.87474017 -12 25 C-15.99675293 20.80340942 -17.37279375 17.94801692 -17.27734375 12.09375 C-16.64504621 7.32034886 -13.71692441 4.60540284 -10.1875 1.625 C-6.50866894 -0.2504825 -4.0745878 -0.32596702 0 0 Z " fill="#FAC3B6" transform="translate(201,446)"/>
<path d="M0 0 C3.65938172 1.43164111 7.23988068 2.98934296 10.8125 4.625 C11.78832031 5.07101562 12.76414063 5.51703125 13.76953125 5.9765625 C14.50558594 6.31429688 15.24164063 6.65203125 16 7 C16 7.33 16 7.66 16 8 C8.41 8 0.82 8 -7 8 C-1 1 -1 1 0 0 Z " fill="#53A9C6" transform="translate(180,344)"/>
<path d="M0 0 C7.59 0 15.18 0 23 0 C20.58949395 2.41050605 18.14580778 3.66943065 15.125 5.25 C14.07570312 5.81203125 13.02640625 6.3740625 11.9453125 6.953125 C9 8 9 8 6.9296875 7.546875 C5 6 5 6 0 0 Z " fill="#53AAC7" transform="translate(173,160)"/>
<path d="M0 0 C0.66 0.33 1.32 0.66 2 1 C1.59007812 1.79664063 1.18015625 2.59328125 0.7578125 3.4140625 C0.21898437 4.47367188 -0.31984375 5.53328125 -0.875 6.625 C-1.40867188 7.66914063 -1.94234375 8.71328125 -2.4921875 9.7890625 C-3.91454291 12.81801625 -5.0122001 15.80643334 -6 19 C-7.4301492 15.19543642 -6.53792878 12.70329177 -5.25 8.9375 C-4.90453125 7.89464844 -4.5590625 6.85179687 -4.203125 5.77734375 C-3.07319665 3.16897019 -2.15803616 1.79216222 0 0 Z " fill="#84D0F0" transform="translate(161,214)"/>
<path d="M0 0 C2.97 0.99 5.94 1.98 9 3 C4.44968209 4.13757948 2.36915594 3.4283779 -2 2 C-1.34 1.34 -0.68 0.68 0 0 Z " fill="#E0C8AC" transform="translate(211,324)"/>
</svg>
